<?xml version="1.0" standalone="no"?>
<!DOCTYPE svg PUBLIC "-//W3C//DTD SVG 20010904//EN"
 "http://www.w3.org/TR/2001/REC-SVG-20010904/DTD/svg10.dtd">
<svg version="1.0" xmlns="http://www.w3.org/2000/svg"
 width="141.000000pt" height="141.000000pt" viewBox="0 0 141.000000 141.000000"
 preserveAspectRatio="xMidYMid meet">
<metadata>
Created by potrace 1.14, written by Peter Selinger 2001-2017
</metadata>
<g transform="translate(0.000000,141.000000) scale(0.100000,-0.100000)"
fill="#000000" stroke="none">
<path d="M1099 1234 c-7 -8 -19 -12 -27 -9 -8 3 -16 -3 -19 -14 -3 -13 -10
-18 -21 -14 -11 5 -14 2 -9 -10 5 -14 2 -16 -20 -11 -17 5 -24 3 -20 -3 4 -6
1 -16 -7 -22 -7 -6 -16 -25 -19 -40 -4 -20 -21 -39 -50 -59 -60 -42 -68 -53
-76 -118 -7 -48 -6 -54 5 -40 7 10 11 28 8 41 -8 48 72 110 151 116 43 4 86
21 86 35 0 5 10 14 22 21 12 7 16 12 9 13 -7 0 -11 4 -7 10 3 5 13 6 22 3 11
-4 14 -2 11 8 -3 8 2 20 9 28 20 20 6 27 -15 8 -23 -21 -52 -22 -52 -1 0 8 16
22 35 30 40 17 42 20 16 33 -14 8 -22 7 -32 -5z"/>
<path d="M783 978 c-20 -23 -30 -44 -38 -88 -8 -41 -34 -68 -82 -84 -26 -9
-68 -34 -93 -56 -50 -44 -82 -50 -103 -19 -20 28 -11 55 29 85 37 28 36 54 -2
54 -20 0 -24 -5 -24 -30 0 -52 -46 -60 -62 -11 -7 25 -48 -53 -50 -95 0 -22 8
-60 19 -85 l20 -46 -116 -109 c-64 -60 -115 -114 -113 -121 2 -7 -3 -10 -11
-8 -18 7 -63 -40 -47 -50 6 -4 14 -4 17 -1 3 3 13 0 22 -7 14 -10 14 -10 5 3
-16 22 -13 47 5 46 9 -1 15 6 15 16 -1 10 1 17 5 16 19 -2 31 3 26 12 -4 6 1
7 11 3 10 -4 15 -2 11 3 -8 14 9 38 22 30 6 -4 9 -11 6 -16 -3 -5 -1 -11 5
-15 13 -8 13 -25 -1 -25 -5 0 -7 5 -3 12 4 7 3 8 -5 4 -6 -4 -8 -13 -4 -19 4
-7 -1 -6 -10 2 -10 8 -20 11 -24 7 -3 -3 -1 -6 7 -6 9 0 10 -3 1 -13 -6 -8 -7
-18 -3 -22 4 -5 1 -5 -6 -1 -18 11 -48 -14 -30 -25 10 -6 10 -9 1 -9 -7 0 -18
-10 -24 -22 -13 -25 -11 -24 127 105 39 37 82 77 97 90 15 12 27 26 27 31 0 5
-6 4 -13 -2 -8 -7 -18 -6 -31 4 -10 7 -23 11 -27 8 -5 -3 -9 0 -9 7 0 6 8 9
20 6 11 -3 23 0 27 5 4 7 1 8 -7 3 -9 -5 -11 -4 -6 4 4 6 12 9 17 6 5 -4 9 -1
9 5 0 6 4 8 10 5 5 -3 10 -1 10 5 0 7 -7 9 -17 5 -15 -5 -16 -4 -5 6 10 11 18
6 41 -21 55 -65 63 -148 22 -228 -66 -129 -222 -149 -330 -42 -54 54 -67 104
-46 183 16 63 54 101 142 143 81 39 86 44 71 64 -8 13 -9 12 -5 -2 6 -17 -8
-24 -88 -49 -126 -38 -181 -94 -192 -197 -15 -130 95 -254 239 -269 103 -11
169 39 242 181 51 100 91 136 152 136 48 0 66 18 45 44 -13 16 -45 11 -62 -10
-18 -22 -43 -16 -62 15 -50 84 16 218 130 266 46 19 73 51 73 85 0 15 11 48
25 74 28 52 27 56 -2 24z m-433 -471 c0 -4 4 -6 9 -2 5 3 12 1 15 -3 6 -10
-41 -59 -52 -54 -4 1 -7 -2 -7 -8 0 -5 -10 -17 -22 -25 -13 -9 -23 -11 -23 -6
0 6 5 11 10 11 6 0 10 4 10 10 0 6 -3 9 -7 9 -27 -4 -33 1 -21 21 7 11 18 18
25 16 8 -3 10 1 6 11 -5 12 -2 15 10 10 9 -3 19 -2 22 3 3 4 -1 10 -7 13 -7 3
-3 4 10 4 12 -1 22 -5 22 -10z m-217 -172 c-3 -9 -8 -14 -10 -11 -3 3 -2 9 2
15 9 16 15 13 8 -4z"/>
<path d="M325 489 c-4 -5 -11 -7 -16 -4 -5 3 -6 -1 -3 -10 5 -12 2 -16 -11
-13 -10 2 -19 -3 -21 -10 -1 -7 0 -8 3 -2 3 7 10 4 19 -7 8 -10 14 -13 13 -8
-4 19 13 47 21 36 4 -8 12 -6 23 7 15 17 15 18 -3 19 -11 1 -22 -3 -25 -8z"/>
<path d="M935 740 c3 -5 0 -10 -7 -10 -8 0 -6 -5 5 -11 13 -8 22 -7 32 1 18
15 10 30 -16 30 -11 0 -17 -4 -14 -10z"/>
<path d="M1000 721 c0 -18 -6 -31 -17 -36 -17 -6 -17 -7 0 -16 13 -8 17 -23
17 -64 0 -38 4 -55 13 -55 9 0 12 15 10 53 -2 39 2 55 15 65 15 11 15 14 2 22
-15 9 -16 13 -19 45 -2 28 -21 15 -21 -14z"/>
<path d="M1380 726 c7 -7 13 -7 20 0 6 6 3 10 -10 10 -13 0 -16 -4 -10 -10z"/>
<path d="M617 677 c-66 -50 -14 -143 69 -123 25 7 25 6 20 -38 -2 -25 -7 -50
-11 -56 -3 -5 -2 -10 3 -10 22 0 31 30 32 110 2 137 6 125 -48 128 -27 1 -56
-4 -65 -11z m74 -28 c26 -26 21 -49 -13 -68 -24 -14 -28 -14 -47 3 -27 25 -27
51 1 70 29 21 34 20 59 -5z"/>
<path d="M760 634 c4 -38 12 -61 25 -70 19 -14 114 -16 116 -2 6 62 2 128 -8
128 -13 0 -17 -22 -14 -66 2 -22 -21 -47 -47 -51 -26 -3 -50 26 -50 60 0 51
-1 57 -15 57 -10 0 -12 -14 -7 -56z"/>
<path d="M930 620 c0 -52 3 -71 12 -68 17 6 17 130 0 136 -9 3 -12 -17 -12
-68z"/>
<path d="M1087 672 c-28 -30 -30 -65 -7 -95 19 -23 28 -27 74 -26 l53 2 0 67
0 67 -52 1 c-38 1 -57 -3 -68 -16z m66 -11 c33 -13 40 -44 15 -70 -24 -26 -54
-27 -68 -2 -14 27 -13 47 6 65 18 19 16 18 47 7z"/>
<path d="M1233 618 c1 -48 5 -68 14 -68 9 0 13 15 13 44 0 59 20 79 68 70 33
-6 36 -6 24 9 -10 12 -29 16 -67 15 l-52 -1 0 -69z"/>
<path d="M392 544 c-12 -8 -20 -20 -16 -26 4 -6 10 -6 16 0 6 6 16 8 23 6 7
-3 16 -1 20 5 3 6 -1 11 -10 11 -9 0 -13 5 -10 10 9 14 3 13 -23 -6z"/>
<path d="M820 530 c-20 -12 -26 -230 -7 -230 7 0 13 19 15 48 5 99 92 96 92
-4 0 -31 4 -44 14 -44 21 0 13 96 -10 122 -15 16 -28 19 -60 15 -40 -4 -40 -4
-39 27 1 17 5 41 9 54 8 25 7 26 -14 12z"/>
<path d="M690 425 c-19 -23 -7 -49 27 -60 18 -6 35 -14 40 -18 13 -13 -20 -27
-49 -21 -35 7 -38 -13 -4 -22 34 -8 57 -2 70 19 15 24 -3 51 -40 57 -37 7 -40
36 -4 33 14 -1 32 1 40 3 13 4 13 6 0 14 -23 14 -66 12 -80 -5z"/>
<path d="M997 428 c-29 -23 -38 -63 -19 -89 21 -32 32 -39 63 -39 59 0 91 78
49 120 -23 23 -68 26 -93 8z m77 -27 c37 -41 -14 -97 -60 -66 -30 19 -31 49
-2 69 29 21 41 20 62 -3z"/>
<path d="M1133 351 c2 -47 0 -98 -4 -113 -4 -15 -3 -30 2 -33 10 -7 31 39 28
64 -3 36 1 40 34 34 64 -10 107 59 67 110 -19 24 -28 27 -75 26 l-54 -2 2 -86z
m98 59 c40 -22 12 -93 -33 -85 -38 8 -51 51 -22 79 18 19 28 20 55 6z"/>
<path d="M239 428 c-5 -18 -6 -38 -1 -34 7 8 12 36 6 36 -2 0 -4 -1 -5 -2z"/>
<path d="M172 353 c-19 -20 -21 -28 -11 -37 9 -8 10 -8 5 1 -3 6 5 20 19 31
14 11 25 23 25 26 0 12 -15 3 -38 -21z"/>
<path d="M124 299 c-4 -7 -3 -9 4 -5 5 3 13 0 15 -6 4 -9 6 -10 6 -1 1 17 -16
25 -25 12z"/>
</g>
</svg>
